<?xml version="1.0" encoding="utf-8"?>
<!-- Generator: Adobe Illustrator 24.3.0, SVG Export Plug-In . SVG Version: 6.00 Build 0)  -->
<svg version="1.1" id="Capa_1" xmlns="http://www.w3.org/2000/svg" xmlns:xlink="http://www.w3.org/1999/xlink" x="0px" y="0px"
	 viewBox="0 0 792 426" style="enable-background:new 0 0 792 426;" xml:space="preserve">
<style type="text/css">
	.st0{fill:#0072CE;}
	.st1{fill:#FFFFFF;}
</style>
<polygon class="st0" points="64,397.7 770,272.8 770,26.1 21,157.6 "/>
<polygon class="st1" points="67.4,296.1 95.3,164.7 171.6,164.7 163.3,192.4 123.2,192.4 118.5,214.5 151.3,214.5 145.6,241.2 
	112.8,241.2 107.1,268 152.2,268 146.2,296.1 "/>
<path class="st1" d="M179.2,163.2l34.1-5.6c0.4,4.7-0.7,14.7-2.8,24.3L195,254c-3.6,17.2-4,21.7,3.4,21.7c1.1,0,2.3-0.2,3.6-0.6
	l0.9,20.4c-4.7,1.7-12.8,3-21.9,3c-27.7,0-25.3-14.3-21.1-33.7l14.1-66.4C179,175.8,179.3,168.7,179.2,163.2"/>
<path class="st1" d="M260.8,220.7c-2.4,0-7.2-0.2-11.9,5.3c-7,8.1-11.1,27.1-11.1,39.2c0,6.6,1.9,9.4,6.4,9.4c4,0,10.7-6.8,11.5-10
	l9-42.6C263.7,221.1,262,220.7,260.8,220.7 M295.7,228.8l-7.4,35.1c-0.7,3.2-0.6,10,3.8,14.7l-26.6,21.3c-4-2.1-6.8-7.9-7.4-11.5
	c-4.3,4.5-14,10.8-25.3,10.8c-19.8,0-28.1-12.5-28.1-33.2c0-20.7,8.3-42.2,20.9-54.9c11.1-11.1,23-14.7,40.2-14.7
	c13.4,0,30,2.3,37.1,5.8C300.2,209,297.4,220.7,295.7,228.8"/>
<path class="st1" d="M369.6,196.4c24.3,0,26.8,13.8,23.8,27.9l-15.3,71.8h-32.8l13.2-62.2c1.7-7.5,0.8-10.9-4.7-10.9
	c-5.3,0-9.4,2.6-13.6,9.1l-13.8,64.1h-32.8l13-61.3c3-14.7,4.2-23.4,2.6-33l29-5.5c0.8,3.2,1.5,6.6,1.7,10.5
	C347.5,200.3,358.9,196.4,369.6,196.4"/>
<path class="st1" d="M426,298.5c-27.2,0-40.3-17.3-33.4-50.1c7-33,27-52,55.6-52c14,0,21.5,3.6,29.4,11.5l-19.2,19.8
	c-2.8-4-7.7-7.2-12.3-7.2c-7.5,0-13.2,6-17.3,25.8c-4.2,19.8-3.8,27.9,5.7,27.9c7.3,0,14.1-3.6,19.6-8.7l9.8,19.2
	C451.2,295.1,437.8,298.5,426,298.5"/>
<path class="st1" d="M498.5,266.7c0,6,2.1,8.9,7.3,8.9c13.6,0,19.2-40.9,19.2-47.5c0-6.6-2.5-8.8-7.4-8.8
	C504.1,219.2,498.5,259.9,498.5,266.7 M559.7,230.9c0,25.5-14.1,67.7-59.6,67.7c-23,0-36-12.6-36-35.1c0-25.1,13.6-67.1,59.6-67.1
	C544.1,196.4,559.7,206.4,559.7,230.9"/>
<polygon points="746.1,292.3 750,292.3 750,302.6 751.8,302.6 751.8,292.3 755.6,292.3 755.6,290.7 746.1,290.7 "/>
<polygon points="759.9,302.6 759.9,291.8 760,291.8 763.3,302.6 764.7,302.6 768.1,291.8 768.2,291.8 768.2,302.6 770,302.6 
	770,290.7 766.8,290.7 764.2,299.6 764.1,299.6 761.3,290.7 758.2,290.7 758.2,302.6 "/>
</svg>
