<?xml version="1.0" encoding="UTF-8"?>
<svg width="40px" height="34px" viewBox="0 0 40 34" version="1.1" xmlns="http://www.w3.org/2000/svg" xmlns:xlink="http://www.w3.org/1999/xlink">
    <!-- Generator: sketchtool 53.2 (72643) - https://sketchapp.com -->
    <title>7F646DE1-F478-447C-82DF-6E670074C671</title>
    <desc>Created with sketchtool.</desc>
    <g id="Page-1" stroke="none" stroke-width="1" fill="none" fill-rule="evenodd">
        <g id="Global-+-Parasite-Icons" transform="translate(-122.000000, -615.000000)">
            <g id="menu-mobile-copy" transform="translate(117.000000, 607.000000)">
                <g id="menu-mobile" transform="translate(5.000000, 5.000000)" stroke="#49A923" stroke-linecap="square" stroke-width="3.34">
                    <g id="mobile-menu-alternate">
                        <path d="M12.6441822,21.6666667 L0,21.6666667 L12.6441822,21.6666667 C12.6441861,21.6666674 12.6441861,21.6666674 12.6441861,21.6666674 Z M12.8631286,8.33333333 L0,8.33333333 L12.8631286,8.33333333 C12.8631286,8.33333333 12.8631286,8.33333333 12.8631286,8.33333333 Z" id="Line-5-Copy-3"></path>
                        <path d="M1.66666667,35 L38.3333333,35" id="Line-5-Copy-2"></path>
                    </g>
                    <g id="search-icon" transform="translate(17.628205, 4.807692)">
                        <path d="M13.8805861,17.1167277 L21.1473748,25.2357753 L13.8805861,17.1167277 Z" id="Path"></path>
                        <path d="M7.8925878,18.1013073 C12.6855665,18.9462199 17.2571274,15.7461273 18.1020399,10.9531486 C18.9469525,6.16016996 15.7468599,1.58860906 10.9527796,0.74369648 C6.15980098,-0.101216101 1.58934166,3.09887653 0.744429081,7.8918552 C-0.1004835,12.6848339 3.09960913,17.2552932 7.8925878,18.1013073 Z" id="Path"></path>
                    </g>
                </g>
                <rect id="Rectangle" fill-rule="nonzero" x="0" y="0" width="50" height="50"></rect>
            </g>
        </g>
    </g>
</svg>