<?xml version="1.0" encoding="utf-8"?>
<!-- Generator: Adobe Illustrator 24.1.2, SVG Export Plug-In . SVG Version: 6.00 Build 0)  -->
<svg version="1.1" id="Layer_1" xmlns="http://www.w3.org/2000/svg" xmlns:xlink="http://www.w3.org/1999/xlink" x="0px" y="0px"
	 viewBox="0 0 496 73" width="496" height="73" style="enable-background:new 0 0 496 73;" xml:space="preserve">
<style type="text/css">
	.st0{fill-rule:evenodd;clip-rule:evenodd;fill:#676767;}
	.st1{fill-rule:evenodd;clip-rule:evenodd;fill:#5DBD36;}
</style>
<desc>Created with Sketch.</desc>
<g>
	<path class="st0" d="M263.2,21.7l11.5,30.7h-8.6l-2-5.3h-11l-2.1,5.3h-8.4l11.6-30.7C254.5,21.7,263.2,21.7,263.2,21.7z M262.1,41
		l-3.3-9.7l0,0l-3.3,9.7H262.1z M351.9,33.7l-2-0.6c-1.4-0.5-3.6-1.2-3.6-3c0-1.8,2-2.6,3.4-2.6c1.9,0,3.8,0.8,5.2,2.1l3.2-6.2
		c-3-1.6-6.2-2.5-9.5-2.6c-5.4-0.3-10.2,3.9-10.5,9.3c0,0.3,0,0.7,0,1c0,5.9,3.3,7.3,8.2,8.7c1.7,0.5,4.7,1.3,4.7,3.5
		c0,2.2-2,3.1-3.9,3.1c-2.7-0.2-5.1-1.4-6.9-3.3l-3.4,6.4c3.1,2.3,6.8,3.5,10.7,3.6c3.2,0.1,6.1-1,8.6-2.9c2.2-2.2,3.3-5.1,3.1-8.2
		C359.4,37.1,356.1,34.9,351.9,33.7L351.9,33.7z M243.7,43.8c0,6.4-5.4,8.6-11,8.6h-12V21.7H232c5.4,0,9,2.2,9,8
		c0.3,2.6-1.1,5-3.4,6.3l0,0C242,36.6,243.7,39.6,243.7,43.8z M228.5,33.7h0.9c2.1,0,4.2-0.4,4.2-3s-2.5-3-4.6-3h-0.6L228.5,33.7
		L228.5,33.7z M235.8,42.9c0-3.8-3.9-3.4-6.5-3.4h-0.8v6.6h1C232,46.2,235.9,46.4,235.8,42.9L235.8,42.9z M315.5,25.8
		c-2.9,3.1-4.4,7.1-4.4,11.3c-0.1,4.4,1.7,8.7,4.8,11.6c3.1,2.9,7.1,4.5,11.4,4.5c2.4-0.1,4.7-0.6,6.9-1.5v-9.6
		c-1.7,2.1-4.1,3.3-6.8,3.3c-4.3,0.2-8-3.3-8.2-7.6c0-0.3,0-0.5,0-0.8c-0.3-4.4,3.2-8.3,7.5-8.5c0.2,0,0.4,0,0.5,0
		c2.8,0,5.3,1.2,6.9,3.4v-9.7c-2.3-1-4.7-1.5-7.2-1.6C322.7,20.9,318.5,22.7,315.5,25.8L315.5,25.8z M300.4,52.3h7.9V21.7h-7.9V52.3
		z M289.8,33.6l-2-0.6c-1.4-0.5-3.6-1.2-3.6-3s2-2.6,3.4-2.6c2,0,3.8,0.8,5.2,2.1l3.2-6.2c-3-1.7-6.2-2.6-9.6-2.6
		c-5.4-0.3-10.2,3.9-10.5,9.3c0,0.3,0,0.7,0,1c0,5.9,3.3,7.3,8.2,8.7c1.7,0.5,4.7,1.3,4.7,3.5c0,2.2-2,3.1-3.9,3.1
		c-2.7-0.2-5.1-1.3-7-3.2l-3.4,6.4c3.1,2.3,6.8,3.5,10.7,3.6c3.2,0.1,6.2-1,8.6-2.9C296,48,297.2,45,297,42
		C297.3,37.1,294.1,34.9,289.8,33.6z"/>
	<path class="st1" d="M166,38.9c-2.2,12.3-15.3,17.4-19.9,11.9c-0.8-1-0.9-3.3,1.7-1.7c3.5,2.2,7.3-4.7,8.1-12.2
		c1-8.4,0.2-12.8-2.1-10.9c-2,1.7-7,7.3-8.9,18.2c-0.1,0.3-0.2,0.6-0.3,0.9c-0.9,8.5-0.4,17,1.2,25.3c0.4,1.7-4.4,3.4-7.4,1
		c-1.1-0.8-1.6-14.9-1.6-25.6c0-7.5,1.6-27.7,2.9-28.2c5.4-2.4,11.1,0.3,8.6,8.8c-0.2,0.5-0.3,1.1-0.5,1.6c1-1.5,2.2-2.9,3.5-4.2
		c2-2.3,4.9-3.5,7.9-3.1C165.7,21.4,167.8,28.6,166,38.9z"/>
	<path class="st1" d="M215.2,18.4c3.3-1.2,3.5-4.3,0-9.2c-0.4-0.6-3.2,1.5-8.5,2.8l0.3-1c3-9-0.2-12.7-9.4-9.2
		c-0.8,0.3-1.3,5.3-1.7,11.3c-2.6,0-4.7-0.2-4.7-0.1c-0.8,1.3-1.3,2.7,1,4.3c1.1,0.7,2.3,1.2,3.6,1.5c-0.1,2.3-0.2,6.7-0.2,8.6
		c0,4.4-0.1,8.8,0.2,12.5V40c-3.5,6.1-13.2,9.7-16.2,4.3c0.1,0,0.2,0,0.2-0.1c9.3-4,15.1-14.2,11.6-20c-5-8-20.9-0.9-22.9,10.4
		c-1.9,10.4,2.8,17.5,10.5,18.3c5.6,0.6,13.9-3.9,17.5-9c0.9,5,2.8,8.5,6.9,9c4.5,0.6,7.1-0.6,11.2-4.7c3.8-3.9,1.4-5.9-1.2-3.5
		c-2.9,2.9-7.1,3.5-8,0.3c-1.5-4.6-1.6-16.4,0-25.4C208.6,19.7,211.9,19.3,215.2,18.4z M178,37.9c-2.1-5.6-0.9-8.2-0.9-8.2
		c0.9-2.9,2.5-2.7,2.5-2.7c1.4,0.1,1.4,4.3,1.4,4.3c2.5-2.2,3.9-1.4,3.9-1.4c1.2,2.5-2.2,5.5-2.2,5.5l-0.4,0.4l-0.2,0.3V36
		C180.8,36.9,179.4,37.5,178,37.9z"/>
</g>
</svg>
