<svg xmlns="http://www.w3.org/2000/svg" viewBox="-9743 -6743 26.832 26.761">
  <path id="Shape_911" data-name="Shape 911" fill="#3b5998" d="M244.947,4702.38a1.459,1.459,0,0,1-1.458,1.46h-6.854v-10.35h3.5l.51-4.01h-4.01v-2.55c0-1.17.292-1.97,1.969-1.97h2.114v-3.65a24.808,24.808,0,0,0-3.135-.14c-3.062,0-5.177,1.89-5.177,5.32v2.99h-3.5v4.01h3.5v10.35H219.574a1.46,1.46,0,0,1-1.459-1.46v-23.84a1.466,1.466,0,0,1,1.459-1.46h23.842a1.465,1.465,0,0,1,1.458,1.46v23.84h.073Z" transform="translate(-9961.115 -11420.08)"/>
</svg>
