<svg xmlns="http://www.w3.org/2000/svg" viewBox="-9691 -6741 27.339 22.891">
  <path id="Shape_912" data-name="Shape 912" fill="#1da1f2" d="M436.864,4679.93a10.278,10.278,0,0,1-3.573,1.38,5.632,5.632,0,0,0-4.083-1.82,5.7,5.7,0,0,0-5.614,5.76,8.005,8.005,0,0,0,.146,1.31,15.782,15.782,0,0,1-11.52-5.98,5.626,5.626,0,0,0-.73,2.92,6.062,6.062,0,0,0,2.479,4.81,5.154,5.154,0,0,1-2.551-.73v.08a5.646,5.646,0,0,0,4.52,5.609,4.574,4.574,0,0,1-1.458.221,4.646,4.646,0,0,1-1.021-.069,5.73,5.73,0,0,0,5.25,4.01,11.018,11.018,0,0,1-6.927,2.479,7.282,7.282,0,0,1-1.312-.081,15.643,15.643,0,0,0,8.6,2.551c10.281,0,15.968-8.741,15.968-16.331v-.73a10.762,10.762,0,0,0,2.771-2.99,9.864,9.864,0,0,1-3.208.879,8.1,8.1,0,0,0,2.263-3.28Z" transform="translate(-10101.47 -11420.49)"/>
</svg>
